<svg id="Capa_1" data-name="Capa 1" xmlns="http://www.w3.org/2000/svg" viewBox="0 0 303.68 350"><defs><style>.cls-1,.cls-9{fill:#ede9f7;}.cls-12,.cls-2{fill:#a592d5;}.cls-11,.cls-3{fill:#fff;}.cls-13,.cls-4{fill:#c9bee6;}.cls-10,.cls-14,.cls-5{fill:none;}.cls-10,.cls-11,.cls-12,.cls-13,.cls-5,.cls-9{stroke:#4a25aa;}.cls-11,.cls-12,.cls-13,.cls-5,.cls-9{stroke-linecap:round;stroke-linejoin:round;}.cls-10,.cls-11,.cls-12,.cls-13,.cls-14,.cls-5,.cls-9{stroke-width:0.75px;}.cls-6{fill:#ffd0c6;}.cls-7{fill:#4a25aa;}.cls-8{fill:#ede8f6;}.cls-10,.cls-14{stroke-miterlimit:10;}.cls-14{stroke:#fff;}</style></defs><path class="cls-1" d="M186.34,26.54c-.67-1.6.85-4.36,3.61-7.76s8.22-8.12,13.51-9.39a36.93,36.93,0,0,0,11.59-5.47,9,9,0,0,1,9.81-.15c3.94,2.46,4.46,6.68,4.53,9.65a25,25,0,0,0,1.81,9.47A31.52,31.52,0,0,1,233,38.76c-1,6.15-4.33,14.06-4.33,14.06"/><path class="cls-2" d="M223,72.75c9.52,1.48,6.68-7.46,6.68-7.46a5.22,5.22,0,0,0,3.44-2.48c1.14-2.1.33-5.27-1-6.91s-3.34.21-3.46-3.53c-.46-14.21-7.38-23.22-14.29-28.06,1.46,4,.73,9.33,1.33,13.57a13.67,13.67,0,0,0,3.1,6.94"/><path class="cls-3" d="M182.4,98c.46,3.16,4.79,7.76,12.64,9.23,1.78.59,3,4.1,3.9,4.18s1.11-3.43,3.71-3.46c14,.32,24.68-7.37,29.51-11.68l0-.06a39.38,39.38,0,0,1-5.47-9.79c-5.54-15.17-4.73-25.9-4.28-29.18h0c1.41-.71,2.82-2.21,3.77-5.13a24.53,24.53,0,0,0,.65-2.8,13.33,13.33,0,0,1-11.13-11.43c-.6-4.24.18-9.76-1-13.31a29.26,29.26,0,0,0-4.87-2.87c-8-3.73-18.63-1.61-20.88,1.14-9.63,11.75-3.79,20.43-8.88,33.73-4.61,12.09-1.76,23.48,8.89,26.54-.43,5.26-2.13,10.16-4.72,13.09A20.78,20.78,0,0,1,182.4,98"/><path class="cls-1" d="M264.57,233.12c-.19,14.86,1.79,28.45,4.11,42.42-13-4-31.66,1.42-31.66,1.42-6.66,1.72-43.57,13.53-66.07,8.07-12.57-3-22.28-9.39-28-18.38,1-24.42,5.51-36.68,5.66-47.17.16-11-1.33-19-2.44-35.82,0,0-16.32-62.38,11.56-73.73,3.23-1.54,6.63-2.94,10.22-4.23,5.92-2.11,10.91-4.54,14.49-7.7h0c.46,3.16,4.79,7.76,12.64,9.23,1.78.59,3,4.1,3.9,4.18s1.11-3.43,3.71-3.46c14,.32,24.68-7.37,29.51-11.68h0c4.58,5.86,11.41,10.62,22.81,15.35,11.16,4.13,20,10.51,25.18,22.11l.79,1.65c5,12.23,9.17,27.47,11.58,37.18"/><path class="cls-4" d="M208.32,78.63s-4.86,16.85-22.3,15A31.53,31.53,0,0,0,189,83.11a21.92,21.92,0,0,0,6.59.79c6,0,10.87-3.74,12.66-5.39"/><path class="cls-5" d="M189,83.35c-.59,5.26-2.15,9.92-4.74,12.85-3.61,4.06-9.31,7-16.32,9.5-3.59,1.29-7,2.69-10.22,4.23"/><path class="cls-3" d="M208.94,347.84a156.5,156.5,0,0,0,58.82-11.42c.63-8.93,1.25-18.78,1.33-23.85.16-10.67,1.2-29.21-1.58-37.2-20.23-5.19-42.36,7-65.56,9.68-17.6,2.65-41.44,3.77-57.77-16.37-.51,9.4-1,64.74-.93,64.77A156.41,156.41,0,0,0,208.94,347.84Z"/><path class="cls-5" d="M267.83,336.41c1.36-20.3,2.82-51.57-.32-61"/><path class="cls-5" d="M197.61,316c0,9,.28,19.81.79,31.52"/><path class="cls-5" d="M176.33,306.26c8.8,10.27,26.95,13.64,42.55,2.41"/><path class="cls-6" d="M206.89,49.07a4.38,4.38,0,0,0-3.65,1.57c-.93,1.11-1.16,3,0,3.76s4.76.45,5.62-1.48A2.72,2.72,0,0,0,206.89,49.07Z"/><path class="cls-6" d="M183.22,48.9c-.32,0-.8-.07-1.17-.06-.07.1-1.18,5.45-1.21,5.76,1.44.11,3.69-.28,4.38-1.85A2.72,2.72,0,0,0,183.22,48.9Z"/><path class="cls-6" d="M195.13,70c-.28-.48-3-.54-3.46,0-.7.84.63,1.53,1.67,1.36C194.6,71.2,195.44,70.54,195.13,70Z"/><path class="cls-5" d="M226.6,50.13a11.3,11.3,0,0,1-.46,2c-2.61,8-8.69,5.27-8.69,5.27"/><path class="cls-5" d="M217.28,47.86l1.07-2.53"/><path class="cls-5" d="M219.53,50.92s1.4-2.25,2.75-2.76"/><line class="cls-5" x1="221.27" y1="49" x2="222.58" y2="49.52"/><path class="cls-5" d="M213.36,69.6a19.13,19.13,0,0,1-19.81,14.26c-14.38-.83-18.71-13.61-13.49-27.29,5.09-13.3-.75-22,8.88-33.73,2.25-2.75,12.84-4.87,20.88-1.14S228.06,35,228.62,52.37c.12,3.74,2.14,1.89,3.46,3.53s2.14,4.81,1,6.91a5.22,5.22,0,0,1-3.44,2.48s2.45,8.4-5.43,7.61"/><path class="cls-5" d="M215.07,27.47c.62,1.92,0,6.17.59,10.41a13.33,13.33,0,0,0,11.13,11.43"/><path class="cls-5" d="M186.34,26.54c-.67-1.6.85-4.36,3.61-7.76s8.22-8.12,13.51-9.39a36.93,36.93,0,0,0,11.59-5.47,9,9,0,0,1,9.81-.15c3.94,2.46,4.46,6.68,4.53,9.65a25,25,0,0,0,1.81,9.47A31.52,31.52,0,0,1,233,38.76c-1,6.15-4.33,14.06-4.33,14.06"/><path class="cls-5" d="M199.15,59.33c-2.33.8-5.7,1.07-10.25-.54"/><path class="cls-7" d="M198.94,59.4c-3.9,5.62-8.68,2.51-8,.06a9.93,9.93,0,0,0,4.35.64C198.35,60,198.94,59.4,198.94,59.4Z"/><path class="cls-5" d="M198.94,32.66s6-1.34,11.57,4.23"/><path class="cls-5" d="M190.12,32.78a10.15,10.15,0,0,0-6.8,2.49"/><path class="cls-5" d="M201.18,42s2.95-1.12,4.53.61"/><ellipse class="cls-7" cx="203.6" cy="42.77" rx="1.28" ry="1.2" transform="translate(136.86 239.82) rotate(-83.15)"/><ellipse class="cls-7" cx="186.02" cy="43.22" rx="1.28" ry="1.2" transform="translate(120.94 222.76) rotate(-83.15)"/><path class="cls-5" d="M183.78,43s1.34-1.5,4-.56"/><path class="cls-5" d="M212.25,41.6c.2-4.81-3.4-6.49-7.93-6.63s-8.26,1.3-8.46,6.1a8.37,8.37,0,0,0,7.83,9A8.57,8.57,0,0,0,212.25,41.6Z"/><path class="cls-5" d="M191.84,43.3a8.29,8.29,0,0,0,.36-3.12c-.33-4.25-3.69-5.29-7.7-4.88s-7.15,2.12-6.82,6.37a7.28,7.28,0,0,0,7.85,6.95"/><path class="cls-5" d="M192.13,39.6c.92-1.47,2.73-1.71,3.92.08"/><line class="cls-5" x1="212.11" y1="39.63" x2="216.96" y2="42.08"/><path class="cls-5" d="M193.66,53.38c-5.24-1.08-5.59-6.42-4.3-7s2.53,1.56,3.54-.79,1.94-9.22,1.65-13.62"/><path class="cls-5" d="M247.91,151c1.69,8,4.56,17.51,4.56,17.51"/><path class="cls-3" d="M210,173.48c2.72,5.43,10.64,8.49,16.21,16.06l6.22,7.77c8.3,10.73,18.58,21.46,28.21,32.16,11.38,12.53,24.76,9,32,3.37,8.51-7.32,10.71-15.42,2.21-50.61l-2.25-9.61a161.52,161.52,0,0,0-32,3.56h0c-2.6-2.49-5.05-4.81-7.15-6.73-2.79-2.71-5.62-5.24-8.45-7.49h0c-5.65-4.79-13.76-11.51-18.51-17.13s-7.73-5.82-8.43-3,1.23,6.21,1.23,6.21l.13.24a17.25,17.25,0,0,0-3.36-.85s-19-2-25.59.43a2.55,2.55,0,0,0-.88,1.91,2.62,2.62,0,0,0-.77,2.48c.48,1.26,1.75,1.61,3.95,2.39s9.35,3.18,9.44,3.31l.18.07c-3.36,1.64-5.26,4.61-4.44,8.21a14.8,14.8,0,0,0,7.47,9.6c3.43,1.94,4.72.79,3.4-2.56,0,0,.4-.77,1.26.18"/><path class="cls-4" d="M250.49,166.87c-6.11,14.2-22.07,25.38-22.07,25.38-2.79-3.59-5.77-6.74-5.77-6.74s16.11-14.42,21.09-24.41C243.74,161.1,249.48,165.71,250.49,166.87Z"/><path class="cls-8" d="M193.13,153.22a2.36,2.36,0,0,1-2.68.63c-1.41-.48-2.19-2.44-1.52-3.31a2.91,2.91,0,0,1,4.38.22A2.37,2.37,0,0,1,193.13,153.22Z"/><path class="cls-8" d="M193.64,148.2a2,2,0,0,1-1.81,1.51c-.71.1-2.8-.63-1.87-1.6a6.6,6.6,0,0,1,3.61-.84A1.63,1.63,0,0,1,193.64,148.2Z"/><path class="cls-8" d="M213,148.41c.69-1.12,1.74-1.28,2-.67s-.52.55-.79,1.39-.55,1.43-1.18,1.24S212.47,149.32,213,148.41Z"/><path class="cls-8" d="M209.43,152.89c.73-1.44,1.86-1.67,2.16-1.1s-.7.81-1,1.87-.46,1.71-1.17,1.53C208.93,155.06,208.84,154.06,209.43,152.89Z"/><path class="cls-8" d="M206.39,159.74c.2-1.31,1.11-1.86,1.59-1.39s-.2.87-.33,1.74,0,1.38-.48,1.44C206.52,161.6,206.22,160.79,206.39,159.74Z"/><path class="cls-8" d="M205.66,166.3c.19-1.25,1.06-1.79,1.51-1.34s-.25.67-.17,1.52.05,1.46-.58,1.53S205.51,167.31,205.66,166.3Z"/><path class="cls-5" d="M244.89,162c-5.65-4.79-13.76-11.51-18.51-17.13s-7.73-5.82-8.43-3,1.23,6.21,1.23,6.21"/><path class="cls-5" d="M222.65,185.51s16.11-14.42,21.09-24.41"/><path class="cls-5" d="M228.42,192.25s16-11.18,22.07-25.38"/><ellipse class="cls-9" cx="240.75" cy="173.6" rx="4.98" ry="5.59" transform="translate(-44.06 257.15) rotate(-52.14)"/><path class="cls-5" d="M231.47,154.27c-5.05-3.31-12.51-6.5-15.52-6.81"/><path class="cls-5" d="M210,173.48c2.72,5.43,10.64,8.49,16.21,16.06"/><path class="cls-5" d="M216.07,147.53c-7.73-1.25-25-1.12-26.09.68a2.72,2.72,0,0,0-.39,1"/><path class="cls-5" d="M202.1,158s-10.69-3.69-12.12-4.3a2.23,2.23,0,0,1-1.19-2.93c.45-.88,1.23-1.5,3.27-1.21S206.83,152,206.83,152"/><path class="cls-5" d="M208.71,173.3c1.32,3.35,0,4.5-3.4,2.56a14.8,14.8,0,0,1-7.47-9.6c-1-4.55,2.27-8.08,7.36-9.22"/><path class="cls-5" d="M203.07,165.17c-1.66,1-4.65,3-4.65,3"/><path class="cls-5" d="M284.18,199.23c-4.64-4.39-21.37-21.08-30.84-29.78-2.79-2.71-5.62-5.24-8.45-7.49"/><path class="cls-5" d="M294.78,182.23c8.5,35.19,6.3,43.29-2.21,50.61-7.2,5.66-20.58,9.16-32-3.37C251,218.77,240.7,208,232.4,197.31"/><path class="cls-5" d="M280.94,135.38c8,19.57,13.84,46.85,13.84,46.85"/><path class="cls-5" d="M226.18,189.54s2.34,2.84,6.22,7.77"/><path class="cls-5" d="M253.34,169.45a268.2,268.2,0,0,1,37.09-4.95"/><path class="cls-5" d="M260.49,176.18a161.52,161.52,0,0,1,32-3.56"/><path class="cls-5" d="M264.57,233.12c-.19,14.86,1.79,28.45,4.11,42.42-6.24-1.69-16.8-2.51-31.66,1.42-6.66,1.72-43.57,13.53-66.07,8.07-12.57-3-22.28-9.39-28-18.38"/><path class="cls-5" d="M280.15,133.73c-5.2-11.6-14-18-25.18-22.11"/><path class="cls-5" d="M143.67,258.12s17.23,18.36,40.26,17.25c28.93-1.17,44.91-12.14,83-11.32"/><path class="cls-5" d="M146.13,183.66c1.11,16.78,2.6,24.78,2.44,35.82-.15,10.49-4.65,22.75-5.66,47.17"/><path class="cls-5" d="M222.37,57.24c-.45,3.28-1.26,14,4.28,29.18C231,97.3,237.81,104.51,255,111.62"/><path class="cls-5" d="M204.19,109.79c3,3.78,8.38,7.15,16.36,3.12,5.34-2,12.34-7.67,16.64-11.43"/><path class="cls-5" d="M193.89,109.88c-7.66,5.3-12.42,1.65-16.73-8.25"/><path class="cls-5" d="M182.4,98c.46,3.16,4.79,7.76,12.64,9.23,1.78.59,3,4.1,3.9,4.18s1.11-3.43,3.71-3.46c14,.32,24.68-7.37,29.51-11.68"/><path class="cls-5" d="M144.18,268.68c-.47,11.18-.76,22.17-.76,34.2,0,8.43-.08,18.91-.17,30.57"/><path class="cls-10" d="M191.67,16.87S221,5.74,232.56,40.9"/><path class="cls-11" d="M121.7,125.71a41.71,41.71,0,0,0,2.53-11.16c.32-3.6.81-7.3,3.08-7.63,0,0,2.95-.66,3.76,6.84"/><path class="cls-12" d="M162.49,125.31,136,134.89,118.84,87a5.29,5.29,0,0,1,3.48-6.85L139.73,75a4.6,4.6,0,0,1,5.63,2.85Z"/><path class="cls-3" d="M118.56,132.68c-2.8,8-5.38,21.34-6.81,32.51-2.13,16.55-4.07,40.27-4.49,47.28-1,13.71,7.07,23.17,17.42,23.17s19.29-7.95,19.68-23.4c.53-35.41,2-57,3.09-67.17l.16-1c.84-4.84,2-6.39,2.64-7.19,5.84-6.29,13.06-9.19,13.43-11.9a1.9,1.9,0,0,0-1.89-2.28c-1.87,0-9.49,2.92-13.85,4.85l-.14.06c3.8-3.87,10-10.18,10.89-11.13s2.37-3.41.72-4.9-4.15-.27-4.84.17l.38-.21c1.68-1.22,3-2.71,2.21-4.48-1.11-2.17-3.49-1.59-5.17-.67L144.2,111s3.54-3.47,5.27-5.26,2-3.7.89-4.72c-1.57-1.31-4.42.33-5.74,1.18-4.31,2.63-9.88,7.88-15.06,13.13a52.46,52.46,0,0,0-9.83,14.23Z"/><path class="cls-1" d="M134.26,114.19c-.52-.73-1.23-.79-1.38-.36s.37.34.6.9.43.94.84.78S134.68,114.78,134.26,114.19Z"/><path class="cls-1" d="M137.84,119.48c-.8-1-1.69-1-1.84-.51s.67.52,1,1.29.62,1.24,1.15,1C138.56,121.07,138.48,120.29,137.84,119.48Z"/><path class="cls-1" d="M141.33,125.82c-.46-.86-1.24-1-1.45-.58s.36.56.66,1.14.33,1,.69.88S141.71,126.51,141.33,125.82Z"/><path class="cls-1" d="M144.81,132.54c-.53-.77-1.28-.85-1.44-.41s.38.37.6,1,.44,1,.88.83S145.23,133.16,144.81,132.54Z"/><path class="cls-1" d="M150.36,101a2.84,2.84,0,0,0-2.61-.5,2.05,2.05,0,0,0-1.41,2.55c.47,1.19,2.64,1.47,3.73,0A1.74,1.74,0,0,0,150.36,101Z"/><path class="cls-1" d="M156.13,106.81a2.24,2.24,0,0,0-2.29-.53,2,2,0,0,0-1.41,2.55c.47,1.19,2.64,1.48,3.73,0A1.7,1.7,0,0,0,156.13,106.81Z"/><path class="cls-1" d="M159.07,112.14a2.15,2.15,0,0,0-2.26,0,2.07,2.07,0,0,0-1,2.69c.6,1,2.71.83,3.55-.81A1.6,1.6,0,0,0,159.07,112.14Z"/><path class="cls-1" d="M162.79,124.06a2.07,2.07,0,0,0-2.1-.58,2,2,0,0,0-1.62,2.25c.31,1.1,2.31,1.46,3.51.15A1.53,1.53,0,0,0,162.79,124.06Z"/><path class="cls-5" d="M147.06,127.92c4.12-1.9,12.72-5.26,14.73-5.25a1.9,1.9,0,0,1,1.89,2.28c-.37,2.71-7.59,5.61-13.43,11.9-.68.8-1.8,2.35-2.64,7.19"/><path class="cls-5" d="M147.45,145.07c-1.08,10.15-2.56,31.76-3.09,67.17-.39,15.45-9.34,23.4-19.68,23.4s-18.39-9.46-17.42-23.17c.42-7,2.36-30.73,4.49-47.28,1.43-11.17,4-24.55,6.81-32.51"/><path class="cls-5" d="M140.6,121.17c3.07-2.7,14-9.45,14-9.45.69-.44,3.19-1.65,4.84-.17s.2,4-.72,4.9-7.09,7.26-10.89,11.13"/><path class="cls-5" d="M135.84,116.36c3.19-2.56,16.15-10,16.15-10,1.68-.92,4.06-1.5,5.17.67.83,1.77-.53,3.26-2.21,4.48"/><path class="cls-5" d="M119.73,129.51a52.46,52.46,0,0,1,9.83-14.23c5.18-5.25,10.75-10.5,15.06-13.13,1.32-.85,4.17-2.49,5.74-1.18,1.15,1,.78,3-.89,4.72S144.2,111,144.2,111"/><path class="cls-3" d="M28.19,332.65s17.18,13.69,56.14,12.73C84,339.56,81.13,285,81.13,285c.18,7.43,11.06,46.09,16,58.83,0,0,37.78,7.06,61.92-10.46-3.93-14.4-32.84-103.94-79.15-96.31C23.74,217.37,25,291.18,28.19,332.65Z"/><path class="cls-1" d="M41.22,165.63a28.22,28.22,0,0,1,7.33,7.44L49.64,171l.26,1.39c2.14,12.85,3.27,16.43-1.79,23.11S36.58,208,33.2,214.81c0,0,20.8,9.27,34.51,12.73a14.31,14.31,0,0,1,9.42,2.31c1.11.53,1.3,1.06,4.13.65s8.22-.2,12.11,2.49c0,0,25.45,2.16,40,0-.15-1-2.55-11.67-2.55-11.67l-3.73-54.91s11.41-7,32.39-6.1c-1-8.61-3.07-31.93-22.58-38.78l-.19.16c-24,12.92-63.42,9.15-70.45-.68l-6.65,2.3s-10.35,2.84-13.07,16.35S41.22,165.63,41.22,165.63Z"/><path class="cls-13" d="M67.71,227.54C54,224.08,33.2,214.81,33.2,214.81s-16.19,31-5,117.84c-1.57-7.28-2.84-73.7,26.94-95.89"/><path class="cls-13" d="M93.37,233s25.45,2.16,40,0c0,0,24.34,97.6,25.66,100.39-25.9-9.42-33-29.39-39.49-56.74s-16.22-31.94-16.22-31.94"/><path class="cls-11" d="M104.55,149.2c-4.43-2.79-7.93-4.93-10.71-7.89s-6.07-5.88-8.3-4.59c0,0-3.3,1.76,1.19,8.94"/><path class="cls-3" d="M159.5,160.31c-20.91-.92-32.39,6.1-32.39,6.1l-14.77-12.53-.15-.16-.64-.52h0a51.45,51.45,0,0,0-13.85-7.72c-6.7-2.4-13.72-4.64-18.56-5.12-1.51-.18-4.66-.42-5.48,1.37-.58,1.37.57,2.92,2.74,3.74s6.78,2.36,6.78,2.36l-8.68-.73c-1.85-.1-4.16.39-4.22,2.74,0,1.89,1.83,2.61,3.8,3h0c-1.06,0-3.16.2-3.87,1.91-.81,2,1.48,3.53,2.67,3.95s1.68.73,6.6,2.5a29.54,29.54,0,0,0-4.73-.26,4.78,4.78,0,0,0-.65.07,1.83,1.83,0,0,0-1.1.74l-.06.1a1.72,1.72,0,0,0-.23.67l0,.06a1.37,1.37,0,0,0,.18,1.09c.46,1,2,1.79,4.12,2.69,3.14,1.44,7.44,3.07,11,5.44,1.92,2,6.68,7.27,10.53,11.65l0,0c12.37,14.15,31.24,36.3,33.76,39.16,3.62,4.11,9.38,8.12,18.58,6.12,0,0,10.4-3.19,11.82-13.06C164.6,202.47,163.84,177.94,159.5,160.31Z"/><path class="cls-2" d="M104.89,79.61c.46-1.45,3.66-15.31,3.66-15.31,1.25-5.3,1.71-14.62-4.43-22.63a14.26,14.26,0,0,0-10.8-5.79,20.61,20.61,0,0,0-6.25.78l-1.19-.82c-8.13-5-16-1.49-20.92,3.31C57.53,46.37,57.72,58.27,56.21,68a70.56,70.56,0,0,1-5.92,19.34A37.05,37.05,0,0,1,43.5,97.71a18,18,0,0,1-10.58,5.58S57.69,120,75.64,117.93A26.36,26.36,0,0,0,98,100.15"/><path class="cls-3" d="M76.49,39.69c3.24.27,7.08,3.49,9.78,5,3.22,1.73,5.31,3,7.42,6.24a35.44,35.44,0,0,1,5.88,17.6s3.05,4.13,3.77,5.32c.78,2.72,2,7.25,2,7.25s-14.4,21.43-28.14,19.07c-8-.77-12.77-8.4-13.49-13.88-1.19-9,.72-10.86-1.47-22.07-1.3-6.72-.75-12.72,1.54-17.16C65.55,42.89,71.53,39.33,76.49,39.69Z"/><path class="cls-3" d="M77.1,100.15s2.17,7.94,1.29,12.76c-.65,3.06-7,6.1-12.11,8.1h0c7,9.83,46.48,13.6,70.45.68l-.23-.31c-7.77-2.87-13.56-4.16-20.58-12.71-5.59-7.07-12.58-34.87-12.58-34.87"/><path class="cls-4" d="M77.1,100.15c7.82.21,14.21-3.71,19.52-10.26,0,0-3.11,17.62-18.07,18.79A49.89,49.89,0,0,0,77.1,100.15Z"/><path class="cls-6" d="M63,69.3c.81-1.07,2-1.33,3.11.16a7.37,7.37,0,0,1,1,5.33c-.3,1.56-2.19,3.29-3.61,2.07-.09-1.12-.06-3-.13-4S63.17,70,63,69.3Z"/><path class="cls-6" d="M91.23,62.67a5.45,5.45,0,0,0-4.87,3.23c-.92,1.92-.27,4.83,1.62,5.87,1.72.94,6.71,0,7.26-3.19C95.73,65.67,93.76,62.83,91.23,62.67Z"/><path class="cls-5" d="M83.26,38.14a21.15,21.15,0,0,1,10.06-2.26,14.26,14.26,0,0,1,10.8,5.79c4.57,6,6.69,13.93,4,24.49l-3.23,13.45"/><path class="cls-5" d="M97.44,88.72s-6.68,10.75-18,11.42c-9.39.55-14.89-8-15.68-13.91-1.19-9,.72-10.86-1.47-22.08C61,57.43,61.53,51.44,63.83,47c2.93-5.09,8.48-7.72,12.6-7.34S82.68,43,89.06,46"/><path class="cls-5" d="M79.3,50.12A14.76,14.76,0,0,1,92.5,54"/><path class="cls-5" d="M64.8,54.21a6.34,6.34,0,0,0-3.25,3"/><path class="cls-3" d="M85.24,76.26s.54-1.53-.36-1.35a18.56,18.56,0,0,1-11.7,5.42,4.23,4.23,0,0,0,.73,1.54C74.28,82.3,82.14,82.73,85.24,76.26Z"/><path class="cls-5" d="M69.08,80.31s9,1.39,15.65-5.3a.38.38,0,0,1,.65.29,8.81,8.81,0,0,1-6.54,8c-.91.24-4.52.79-5.71-3"/><path class="cls-7" d="M73.54,81.31c1.6.78,8.33-.32,11.7-5,0,0-.91,4.7-4.59,6.36S74.85,83.18,73.54,81.31Z"/><path class="cls-5" d="M71,73.62a4.1,4.1,0,0,0-1-1.44,14.52,14.52,0,0,1-1.22-1.26,2.61,2.61,0,0,1-.61-1.63c.1-2.61,3.16-1,3.9-2.81a2.88,2.88,0,0,0,.1-1.34,56.14,56.14,0,0,0-2-10.13"/><path class="cls-6" d="M83.3,87.77c-.68-.59-5.09.67-5.58,1.79-.72,1.63,1.76,2,3.35,1.23C83,89.85,84.05,88.43,83.3,87.77Z"/><path class="cls-11" d="M97.65,67.54c.75-1,.88-1.5,2.32-5.35,2.35-6.25,8.94-2,7.31,4.15s-7.13,4.75-7.13,4.75"/><path class="cls-5" d="M89.88,46.67c7.87,6.45,9.22,17.86,9.22,17.86"/><circle class="cls-9" cx="101.88" cy="70.39" r="3.1"/><path class="cls-5" d="M101.44,66.16s1.5-2.16,2.68-2.58"/><line class="cls-5" x1="102.8" y1="64.57" x2="103.98" y2="64.81"/><path class="cls-5" d="M105,59.47a1.64,1.64,0,1,1,.74,2.91"/><path class="cls-5" d="M67.18,63.06a6.57,6.57,0,0,0-4.26,2.26"/><path class="cls-7" d="M66.17,63.35a1.45,1.45,0,0,0-1.83,1.3,1.76,1.76,0,0,0,1.23,1.94,1.6,1.6,0,0,0,1.9-.91A1.75,1.75,0,0,0,66.17,63.35Z"/><path class="cls-5" d="M80.26,60.18a7.22,7.22,0,0,1,6,0"/><path class="cls-7" d="M83.42,59.51A1.45,1.45,0,0,0,81.72,61a1.76,1.76,0,0,0,1.39,1.83,1.61,1.61,0,0,0,1.81-1.08A1.75,1.75,0,0,0,83.42,59.51Z"/><path class="cls-5" d="M32.92,103.29A18,18,0,0,0,43.5,97.71a37.05,37.05,0,0,0,6.79-10.34A70.56,70.56,0,0,0,56.21,68c1.51-9.76,1.32-21.66,8.75-28.88,5-4.8,12.79-8.28,20.92-3.31"/><path class="cls-5" d="M57.83,83.89A36.71,36.71,0,0,1,53,99.57,69.56,69.56,0,0,1,45,110.11"/><path class="cls-5" d="M40,106.63A26.76,26.76,0,0,0,50.83,95.12"/><path class="cls-5" d="M45.23,110.21a58.86,58.86,0,0,0,27.5,7.88"/><path class="cls-11" d="M21.63,124.42A40.14,40.14,0,0,0,25.31,114c.72-3.42,1.61-6.91,3.82-7,0,0,2.9-.3,2.82,7"/><path class="cls-12" d="M60.82,129,34,134.61l-9.68-49.1a4.34,4.34,0,0,1,3.78-5.16l17.69-2a4.85,4.85,0,0,1,5.28,3.83Z"/><path class="cls-3" d="M44.84,112.84c4-1.84,8-3.51,8-3.51,1.71-.69,4-1,4.88,1.23.59,1.79-.89,3.06-2.63,4l-.39.16c.72-.34,3.24-1.21,4.65.39s-.25,3.82-1.24,4.6-7.61,6.15-11.69,9.43h0c4.37-1.36,12.14-3.35,14-3.13a1.83,1.83,0,0,1,1.55,2.4C61.23,131,54,133,47.69,138.31c-1.32,1.43-1.39,3.59-2.47,8.2l-4,19.12a31.73,31.73,0,0,1,7.33,7.44c-3,5.5-10.58,18.44-18.52,24.38C19.8,205.1,6.7,200.24,3.39,188c0,0-2.06-9.13,1.55-22.45s11.61-33.34,14.37-37.67a50.45,50.45,0,0,1,11-12.5c5.55-4.45,11.47-8.84,15.89-10.87,1.36-.66,4.27-1.91,5.63-.48,1,1.11.41,3-1.38,4.43S44.84,112.84,44.84,112.84Z"/><path class="cls-14" d="M17.84,130.73c-3.59,7.3-7.57,19.81-10.21,30.34C3.72,176.67,10.12,187.81,20,189s21.87-33.52,24.06-43.12l.27-1c1.35-4.54,2.6-5.89,3.34-6.58C54,133,61.23,131,61.89,128.44a1.83,1.83,0,0,0-1.55-2.4c-1.79-.21-9.41,1.72-13.8,3.08l-.15,0c4.08-3.28,10.75-8.61,11.69-9.43s2.65-3,1.24-4.6-3.93-.73-4.65-.39l.39-.16c1.74-1,3.22-2.24,2.63-4-.83-2.21-3.17-1.92-4.88-1.23l-8,3.51s3.78-2.92,5.64-4.43,2.37-3.32,1.38-4.43c-1.36-1.43-4.27-.18-5.63.48-4.42,2-10.34,6.42-15.89,10.87a50.45,50.45,0,0,0-11,12.5Z"/><path class="cls-1" d="M35,114.81c-.42-.75-1.1-.89-1.28-.5s.31.37.46.93.31,1,.73.85S35.29,115.42,35,114.81Z"/><path class="cls-1" d="M37.78,120.29c-.65-1-1.51-1.14-1.7-.7s.58.57.84,1.35.46,1.25,1,1.07S38.3,121.12,37.78,120.29Z"/><path class="cls-1" d="M40.41,126.74c-.35-.87-1.07-1.11-1.33-.71s.28.57.51,1.16.2,1,.55.92S40.69,127.45,40.41,126.74Z"/><path class="cls-1" d="M43,133.57c-.42-.8-1.13-1-1.33-.55s.33.39.47,1,.3,1,.74.9S43.3,134.21,43,133.57Z"/><path class="cls-1" d="M51.86,104a2.74,2.74,0,0,0-2.44-.77,2,2,0,0,0-1.63,2.28c.31,1.19,2.35,1.71,3.57.4A1.66,1.66,0,0,0,51.86,104Z"/><path class="cls-1" d="M56.73,110.23a2.17,2.17,0,0,0-2.14-.77A2,2,0,0,0,53,111.74c.31,1.2,2.36,1.72,3.57.41A1.65,1.65,0,0,0,56.73,110.23Z"/><path class="cls-1" d="M58.93,115.66a2.07,2.07,0,0,0-2.16-.27,2,2,0,0,0-1.27,2.46C56,118.9,58,119,59,117.49A1.53,1.53,0,0,0,58.93,115.66Z"/><path class="cls-1" d="M61.14,127.49a2,2,0,0,0-2-.79,1.94,1.94,0,0,0-1.8,2c.17,1.09,2,1.66,3.35.54A1.49,1.49,0,0,0,61.14,127.49Z"/><path class="cls-5" d="M45.65,129.4c4.16-1.35,12.77-3.59,14.69-3.36a1.83,1.83,0,0,1,1.55,2.4C61.23,131,54,133,47.69,138.31c-1.32,1.43-1.39,3.59-2.47,8.2l-7.38,35.33"/><path class="cls-5" d="M40.24,122.21c3.24-2.23,14.43-7.46,14.43-7.46.72-.34,3.24-1.21,4.65.39s-.25,3.82-1.24,4.6-7.61,6.15-11.69,9.43"/><path class="cls-5" d="M36.23,117.07c3.33-2.09,16.58-7.74,16.58-7.74,1.71-.69,4-1,4.88,1.23.59,1.79-.89,3.06-2.63,4"/><path class="cls-5" d="M49.64,171S40.26,189.79,30,197.45,6.7,200.24,3.39,188c0,0-2.06-9.13,1.55-22.45s11.61-33.34,14.37-37.67a50.45,50.45,0,0,1,11-12.5c5.55-4.45,11.47-8.84,15.89-10.87,1.36-.66,4.27-1.91,5.63-.48,1,1.11.41,3-1.38,4.43s-5.64,4.43-5.64,4.43"/><path class="cls-1" d="M94.94,146.83c.24-.77.83-1,1.07-.69s-.22.39-.25.93-.11.91-.51.9S94.75,147.44,94.94,146.83Z"/><path class="cls-1" d="M93.37,152.32c.4-1.06,1.16-1.31,1.42-.94s-.43.62-.52,1.38-.19,1.22-.7,1.16S93.05,153.18,93.37,152.32Z"/><path class="cls-1" d="M92.15,158.67c.16-.85.77-1.2,1.08-.89s-.15.57-.25,1.15,0,.91-.34.94S92,159.37,92.15,158.67Z"/><path class="cls-1" d="M91.06,165.35c.24-.8.85-1.07,1.11-.74s-.22.42-.25,1-.09,1-.51.95S90.87,166,91.06,165.35Z"/><path class="cls-1" d="M74.18,141.73c.13-.71,1.27-1.38,2-1.52a2,2,0,0,1,2.29,1.63c.09,1.22-1.68,2.38-3.25,1.54C74.82,143.14,74,142.62,74.18,141.73Z"/><path class="cls-1" d="M71.08,149.22a2.17,2.17,0,0,1,1.78-1.42,2,2,0,0,1,2.29,1.63c.09,1.23-1.68,2.38-3.25,1.54A1.65,1.65,0,0,1,71.08,149.22Z"/><path class="cls-1" d="M71.17,154.34a2.1,2.1,0,0,1,2-1,2,2,0,0,1,2,1.92c-.1,1.14-2,1.85-3.42.78A1.52,1.52,0,0,1,71.17,154.34Z"/><path class="cls-1" d="M73.48,162.5a2,2,0,0,1,1.85-1,1.92,1.92,0,0,1,2,1.76c0,1.09-1.85,1.87-3.26.9A1.47,1.47,0,0,1,73.48,162.5Z"/><path class="cls-5" d="M89.38,162.88C85.09,162,76,160.53,74.11,161a1.84,1.84,0,0,0-1.27,2.56c.94,2.47,8.35,3.61,15.21,8.23,3.46,3,40.71,46.74,44.33,50.85s9.38,8.12,18.58,6.12c0,0,10.4-3.19,11.82-13.06,1.82-13.2,1.06-37.73-3.28-55.36"/><path class="cls-5" d="M90.57,155.2c-3.79-1.06-16.08-2.37-16.08-2.37-.78-.09-3.46-.1-4.27,1.88s1.48,3.53,2.67,3.95c.66.27,3.65,1.44,7,2.64"/><path class="cls-5" d="M92.69,149c-3.83-.89-18.19-1.94-18.19-1.94-1.85-.1-4.16.39-4.22,2.74,0,1.89,1.83,2.61,3.8,3"/><path class="cls-5" d="M145.36,183.78c-11.18-11.78-29.16-26.86-33.17-30.06a50.56,50.56,0,0,0-14.49-8.24c-6.7-2.4-13.72-4.64-18.56-5.12-1.51-.18-4.66-.42-5.48,1.37-.58,1.37.57,2.92,2.74,3.74s6.78,2.36,6.78,2.36"/><path class="cls-5" d="M41.22,165.63a28.22,28.22,0,0,1,7.33,7.44"/><path class="cls-5" d="M53.17,146.64s-5.41,12.9-3.27,25.76,3.27,16.43-1.79,23.11S36.58,208,33.2,214.81"/><path class="cls-5" d="M77.1,100.15s2.17,7.94,1.29,12.76c-1.11,5.22-18.76,10.4-18.76,10.4"/><path class="cls-5" d="M66.28,121c7,9.83,46.48,13.6,70.45.68"/><path class="cls-5" d="M103.34,73.8s7,27.8,12.58,34.87c7,8.55,12.81,9.84,20.58,12.71"/><path class="cls-13" d="M80.4,234.42s4.81,14.42,5.79,40.72c0,1.18.37,7,15.31,4.22s12.36-10.89,10.45-15.75-8.83-23-16.29-29c-7.7-6.23-14.5-3.7-16.68-4-2.39-.35-8.29-6.5-17.27-.71s-19.16,29.59-20.56,35.77-1.77,9.72,8.49,10.9,15.26-.4,15.84-6.33,3.34-26,7.22-30.23c0,0,2.74,4.49,9.31,1.57"/><path class="cls-13" d="M71.65,233.51C70,237.63,74,245.59,82,241.58"/><path class="cls-5" d="M88.69,279s13.1-8.11,24.21-6.36"/><path class="cls-5" d="M69.63,276.64s7.15,8.95,20.53,5.62"/><path class="cls-5" d="M99.82,239.16s20.74,1.34,25.89.75"/><path class="cls-5" d="M39.23,226.15s9.94,4.86,19.18,6.59"/><path class="cls-5" d="M133.39,233c-.15-1-2.55-11.67-2.55-11.67"/><path class="cls-5" d="M127.11,166.41s11.41-7,32.39-6.1c-1-8.67-3.1-32.27-23-38.93"/><line class="cls-5" x1="84.33" y1="345.38" x2="81" y2="282.74"/><path class="cls-5" d="M97.13,343.84s-15.3-45.49-16-59.42"/></svg>